<?xml version="1.0" standalone="no"?><!DOCTYPE svg PUBLIC "-//W3C//DTD SVG 1.1//EN" "http://www.w3.org/Graphics/SVG/1.1/DTD/svg11.dtd"><svg t="1756208893887" class="icon" viewBox="0 0 1024 1024" version="1.1" xmlns="http://www.w3.org/2000/svg" p-id="4562" xmlns:xlink="http://www.w3.org/1999/xlink" width="200" height="200"><path d="M348.342857 713.142857a279.405714 279.405714 0 0 1 0.182857-548.571428 273.005714 273.005714 0 0 1 229.485715 59.794285 36.571429 36.571429 0 0 0 43.702857 5.12 37.668571 37.668571 0 0 0 20.48-30.537143 36.571429 36.571429 0 0 0-12.617143-32.731428 352.548571 352.548571 0 0 0-247.771429-84.114286 358.034286 358.034286 0 0 0-48.457143 709.302857 34.742857 34.742857 0 0 0 7.497143 0 36.571429 36.571429 0 0 0 36.571429-27.428571 40.594286 40.594286 0 0 0-3.84-32.548572 36.571429 36.571429 0 0 0-25.234286-18.285714z" fill="#28BB86" p-id="4563"></path><path d="M360.777143 294.4v133.485714l-91.428572 91.428572a38.034286 38.034286 0 0 0 0 54.857143 35.474286 35.474286 0 0 0 25.051429 9.508571 42.24 42.24 0 0 0 29.805714-12.068571l102.765715-102.765715a40.594286 40.594286 0 0 0 11.52-27.428571v-146.285714a38.948571 38.948571 0 1 0-77.897143 0zM811.702857 577.828571A185.782857 185.782857 0 1 0 502.857143 438.857143a181.76 181.76 0 0 0 59.977143 136.228571C448.365714 633.417143 394.788571 768 392.594286 877.714286a68.022857 68.022857 0 0 0 18.285714 46.811428 62.72 62.72 0 0 0 44.434286 18.285715h463.542857a63.085714 63.085714 0 0 0 44.617143-18.285715 64.365714 64.365714 0 0 0 18.285714-47.177143c-2.011429-127.634286-70.217143-246.674286-170.057143-299.52z m-123.062857 46.811429c126.72 0 209.005714 121.051429 217.6 240.457143H471.222857c7.862857-120.685714 84.114286-240.457143 217.417143-240.457143z m0-77.897143a108.068571 108.068571 0 1 1 108.068571-107.885714 106.788571 106.788571 0 0 1-108.068571 107.885714z" fill="#28BB86" p-id="4564"></path></svg>